<?xml version="1.0" encoding="utf-8"?>
<!-- Generator: Adobe Illustrator 26.0.1, SVG Export Plug-In . SVG Version: 6.00 Build 0)  -->
<svg version="1.1" id="Layer_1" xmlns="http://www.w3.org/2000/svg" xmlns:xlink="http://www.w3.org/1999/xlink" x="0px" y="0px"
	 viewBox="0 0 2345.9 1222.9" style="enable-background:new 0 0 2345.9 1222.9;" xml:space="preserve">
<style type="text/css">
	.st0{fill:url(#SVGID_1_);}
	.st1{fill:url(#SVGID_00000018940561957766995960000001968720082216348297_);}
	.st2{fill:url(#SVGID_00000041292068588161509910000013509304770760396177_);}
	.st3{fill:url(#SVGID_00000075872778678520326290000004235310596286118045_);}
</style>
<g>
	
		<linearGradient id="SVGID_1_" gradientUnits="userSpaceOnUse" x1="42.5" y1="730.4" x2="42.5" y2="335.4999" gradientTransform="matrix(1 0 0 -1 0 1222)">
		<stop  offset="0" style="stop-color:#00C3FF"/>
		<stop  offset="1" style="stop-color:#00C3FF"/>
	</linearGradient>
	<path class="st0" d="M72.6,491.6c-11.1,6.5-20.2,12.8-27.5,18.6c-21.4,17-32.7,38-32.7,59.4v257.1c0,26.1,22.8,45.4,60.2,59.8
		V491.6z"/>
	
		<linearGradient id="SVGID_00000003798249197403100960000007361599711847467904_" gradientUnits="userSpaceOnUse" x1="2303.3" y1="730.3" x2="2303.3" y2="335.4" gradientTransform="matrix(1 0 0 -1 0 1222)">
		<stop  offset="0" style="stop-color:#00C3FF"/>
		<stop  offset="1" style="stop-color:#00C3FF"/>
	</linearGradient>
	<path style="fill:url(#SVGID_00000003798249197403100960000007361599711847467904_);" d="M2300.7,510.3
		c-7.3-5.9-16.4-12.1-27.5-18.6v394.9c37.5-14.4,60.2-33.7,60.2-59.8V569.6C2333.4,548.2,2322.1,527.3,2300.7,510.3z"/>
</g>
<linearGradient id="SVGID_00000109015708464657329950000017255701432614304643_" gradientUnits="userSpaceOnUse" x1="1172.9" y1="1201.6" x2="1172.9" y2="109.9">
	<stop  offset="0" style="stop-color:#00C3FF"/>
	<stop  offset="1" style="stop-color:#00C3FF"/>
</linearGradient>
<path style="fill:url(#SVGID_00000109015708464657329950000017255701432614304643_);" d="M2197.6,370.3
	c-81.7-101.3-322-260.4-1024.7-260.4S229.9,269,148.2,370.2c-27.3,33.8-41.9,75.2-41.9,117.6v509.3c0,204.5,454.5,199,726.9,204.5
	c1.7,0,3.5,0,5.2,0c68.2,0,133.3-25.8,182.3-70.6c37.3-34.1,91.6-55.6,152.2-55.6c60.5,0,114.8,21.4,152.2,55.6
	c49,44.9,114.1,70.6,182.3,70.6c1.7,0,3.4,0,5.2,0c272.4-5.4,726.9,0,726.9-204.5V487.9C2239.5,445.4,2224.9,404.1,2197.6,370.3z
	 M1979.6,734.4h-279.9l-83.4,78.3c-3.5,3.3-8.4,4.7-13.1,3.8c-4.7-0.9-8.7-4.1-10.8-8.5l-91.8-199.5l-137.6,291.4
	c-2.5,5.3-7.8,8.6-13.6,8.6c-0.2,0-0.4,0-0.6,0c-6-0.2-11.3-4.1-13.4-9.7l-173.7-461.5l-166.6,384c-2.3,5.2-7.3,8.7-13,9
	c-5.7,0.3-11-2.6-13.8-7.6L862.8,636.8L763.7,787c-4.4,6.7-13.4,8.7-20.3,4.5L644.1,731H366.2c-8.3,0-15-6.7-15-15s6.7-15,15-15
	h282.1c2.8,0,5.5,0.8,7.8,2.2l90.5,55.2l104.6-158.5c2.9-4.4,7.8-6.9,13-6.7c5.2,0.2,10,3,12.5,7.6l102.9,181.1l169.4-390.4
	c2.4-5.6,8-9.2,14.1-9c6.1,0.2,11.5,4,13.7,9.7l174.2,463l136.2-288.5c2.5-5.3,7.8-8.6,13.6-8.6c0,0,0,0,0.1,0
	c5.8,0,11.1,3.4,13.6,8.7l96.5,209.9l72.5-68.1c2.8-2.6,6.5-4.1,10.3-4.1h285.8c8.3,0,15,6.7,15,15S1987.9,734.4,1979.6,734.4z"/>
<linearGradient id="SVGID_00000059990251460556233790000008418147563219314318_" gradientUnits="userSpaceOnUse" x1="975.9999" y1="1171.15" x2="1369.7" y2="1171.15" gradientTransform="matrix(1 0 0 -1 0 1222)">
	<stop  offset="0" style="stop-color:#00C3FF"/>
	<stop  offset="1" style="stop-color:#00C3FF"/>
</linearGradient>
<path style="fill:url(#SVGID_00000059990251460556233790000008418147563219314318_);" d="M1173,75.8c70.1,0,135.5,1.6,196.7,4.5
	c-6.3-10.5-12.3-19.2-17.9-26.3c-17-21.4-38-32.7-59.4-32.7h-257.1c-25.8,0-45,22.3-59.3,59.1C1037.3,77.4,1102.9,75.8,1173,75.8z"
	/>
</svg>
