<?xml version="1.0" encoding="utf-8"?>
<!-- Generator: Adobe Illustrator 25.4.1, SVG Export Plug-In . SVG Version: 6.00 Build 0)  -->
<svg version="1.1" id="Layer_1" xmlns="http://www.w3.org/2000/svg" xmlns:xlink="http://www.w3.org/1999/xlink" x="0px" y="0px"
	 viewBox="0 0 3045.6 1578.7" enable-background="new 0 0 3045.6 1578.7" xml:space="preserve">
<g>
	<path fill="#FFFFFF" d="M98,1576.7c-9.7,0-16.7-4.8-20.9-14.3L2.3,1394.6c-3.1-7.2-2.9-13.2,0.4-17.6c3.3-4.4,8.3-6.8,14.7-6.8
		c5.5,0,9.6,1.2,12.4,3.5c2.8,2.4,5.1,6,7,10.7l61.6,142.9l61.6-143.2c2.1-4.5,4.5-8.1,7.4-10.4c2.9-2.4,6.9-3.5,12.1-3.5
		c6.1,0,10.7,2.3,13.8,6.9s3.1,10.4-0.1,17.5l-74.8,167.8c-2.1,4.8-4.8,8.3-7.9,10.7C107.5,1575.5,103.3,1576.7,98,1576.7z"/>
	<path fill="#FFFFFF" d="M280.5,1576.7c-12.2,0-18.4-6.3-18.4-18.9v-168.7c0-12.6,6.1-18.9,18.4-18.9c12.2,0,18.3,6.3,18.3,18.9
		v168.7C298.7,1570.4,292.6,1576.7,280.5,1576.7z"/>
	<path fill="#FFFFFF" d="M401.3,1576.7c-12.2,0-18.4-6.3-18.4-18.9v-166.7c0-12.4,6.2-18.6,18.6-18.6h69c22.2,0,39.2,5.3,51.3,16
		c12.1,10.6,18.1,25.5,18.1,44.5c0,15.1-3.9,27.6-11.7,37.3c-7.9,9.9-19.1,16.5-33.8,19.9c9.7,3.1,17.7,10.4,24,22l21.5,39.8
		c3.2,6.1,3.9,11.7,1.9,17c-2,5.2-7,7.8-14.7,7.8c-5.2,0-9.3-1.1-12.6-3.3c-3.2-2.2-6.1-5.5-8.6-10.2l-28.9-53.3
		c-3.4-6.5-7.5-10.9-12.2-13.1c-4.7-2.2-10.6-3.3-17.9-3.3h-27.3v64.1C419.7,1570.4,413.5,1576.7,401.3,1576.7z M419.7,1466.4h44.6
		c26.7,0,40.1-10.9,40.1-32.7c0-21.6-13.4-32.3-40.1-32.3h-44.6V1466.4z"/>
	<path fill="#FFFFFF" d="M681,1576.7c-12.2,0-18.4-6.3-18.4-18.9v-154.7h-55.8c-10.5,0-15.7-5.2-15.7-15.5
		c0-10.1,5.2-15.2,15.7-15.2h148.5c10.5,0,15.7,5.1,15.7,15.2c0,10.3-5.2,15.5-15.7,15.5h-55.8v154.7
		C699.3,1570.4,693.1,1576.7,681,1576.7z"/>
	<path fill="#FFFFFF" d="M915.8,1577.3c-27.7,0-48.9-7.2-63.5-21.6c-14.6-14.4-21.9-35.8-21.9-64v-102.8c0-12.4,6.1-18.6,18.4-18.6
		c12.2,0,18.3,6.2,18.3,18.6v102.6c0,18.2,4.2,31.8,12.4,40.9c8.3,9.1,20.4,13.6,36.2,13.6c32.2,0,48.4-18.2,48.4-54.4v-102.6
		c0-12.4,6.1-18.6,18.4-18.6c12.1,0,18.1,6.2,18.1,18.6v102.8c0,28.3-7.2,49.6-21.5,64C964.9,1570.1,943.7,1577.3,915.8,1577.3z"/>
	<path fill="#FFFFFF" d="M1084,1576.7c-6.6,0-11.4-2.3-14.3-6.9c-2.9-4.5-2.8-10.1,0.3-16.6l75.7-167.6c2.4-5.5,5.5-9.5,9-11.9
		c3.5-2.4,7.6-3.5,12.2-3.5c4.4,0,8.3,1.2,11.9,3.5c3.5,2.4,6.5,6.3,9,11.9l75.9,167.6c3.1,6.6,3.2,12.3,0.6,16.7
		c-2.7,4.4-7.3,6.8-13.7,6.8c-5.3,0-9.5-1.3-12.4-3.9c-3-2.5-5.5-6.5-7.9-11.9l-14.3-33.2h-98.6l-14.1,33.2
		c-2.4,5.5-5.1,9.5-7.8,12.1C1092.9,1575.5,1089,1576.7,1084,1576.7z M1166.3,1412.3l-36.3,86.2h73.3l-36.3-86.2H1166.3z"/>
	<path fill="#FFFFFF" d="M1353.9,1574.4c-12.4,0-18.6-6.3-18.6-18.9v-165.3c0-12.4,6.1-18.6,18.3-18.6s18.4,6.2,18.4,18.6v153h83.1
		c10.7,0,16.1,5.2,16.1,15.5c0,10.5-5.3,15.7-16.1,15.7H1353.9z"/>
	<path fill="#FFFFFF" d="M1672.5,1576.7c-12.2,0-18.3-6.3-18.3-18.9v-166.7c0-12.4,6.2-18.6,18.6-18.6h69c22.2,0,39.2,5.3,51.3,16
		c12.1,10.6,18.1,25.5,18.1,44.5c0,15.1-3.9,27.6-11.7,37.3c-7.9,9.9-19.1,16.5-33.8,19.9c9.7,3.1,17.7,10.4,24,22l21.5,39.8
		c3.2,6.1,3.9,11.7,1.9,17c-2,5.2-6.9,7.8-14.7,7.8c-5.2,0-9.3-1.1-12.6-3.3c-3.2-2.2-6.1-5.5-8.6-10.2l-28.9-53.3
		c-3.4-6.5-7.5-10.9-12.2-13.1c-4.7-2.2-10.6-3.3-17.9-3.3h-27.3v64.1C1690.8,1570.4,1684.7,1576.7,1672.5,1576.7z M1690.8,1466.4
		h44.6c26.7,0,40.1-10.9,40.1-32.7c0-21.6-13.4-32.3-40.1-32.3h-44.6V1466.4z"/>
	<path fill="#FFFFFF" d="M1910.2,1574.4c-13,0-19.5-6.5-19.5-19.5v-163c0-13,6.5-19.5,19.5-19.5h102.3c10,0,14.8,4.8,14.8,14.3
		c0,10-5,14.8-14.8,14.8H1926v55.6h80.2c10,0,14.8,4.9,14.8,14.6c0,9.7-5,14.6-14.8,14.6H1926v58.7h86.5c10,0,14.8,4.9,14.8,14.6
		c0,9.7-5,14.6-14.8,14.6L1910.2,1574.4L1910.2,1574.4z"/>
	<path fill="#FFFFFF" d="M2100.2,1576.7c-6.6,0-11.4-2.3-14.3-6.9c-2.9-4.5-2.8-10.1,0.3-16.6l75.7-167.6c2.4-5.5,5.5-9.5,9-11.9
		c3.5-2.4,7.6-3.5,12.2-3.5c4.4,0,8.3,1.2,11.9,3.5c3.5,2.4,6.5,6.3,9,11.9l75.9,167.6c3.1,6.6,3.2,12.3,0.6,16.7
		c-2.7,4.4-7.3,6.8-13.7,6.8c-5.3,0-9.5-1.3-12.4-3.9c-3-2.5-5.5-6.5-7.9-11.9l-14.3-33.2h-98.6l-14.1,33.2
		c-2.4,5.5-5.1,9.5-7.8,12.1C2109,1575.5,2105.2,1576.7,2100.2,1576.7z M2182.4,1412.3l-36.3,86.2h73.3l-36.3-86.2H2182.4z"/>
	<path fill="#FFFFFF" d="M2370.1,1574.4c-12.4,0-18.6-6.3-18.6-18.9v-165.3c0-12.4,6.1-18.6,18.3-18.6s18.4,6.2,18.4,18.6v153h83.1
		c10.7,0,16.1,5.2,16.1,15.5c0,10.5-5.3,15.7-16.1,15.7H2370.1z"/>
	<path fill="#FFFFFF" d="M2571,1576.7c-12.2,0-18.3-6.3-18.3-18.9v-168.7c0-12.6,6.1-18.9,18.3-18.9s18.4,6.3,18.4,18.9v168.7
		C2589.2,1570.4,2583.2,1576.7,2571,1576.7z"/>
	<path fill="#FFFFFF" d="M2740.5,1576.7c-12.2,0-18.4-6.3-18.4-18.9v-154.7h-55.8c-10.5,0-15.7-5.2-15.7-15.5
		c0-10.1,5.2-15.2,15.7-15.2h148.5c10.5,0,15.7,5.1,15.7,15.2c0,10.3-5.2,15.5-15.7,15.5h-55.8v154.7
		C2758.9,1570.4,2752.8,1576.7,2740.5,1576.7z"/>
	<path fill="#FFFFFF" d="M2961.7,1576.7c-12.2,0-18.3-6.4-18.3-19.2v-75.9l-61.3-86.2c-2.4-3.4-3.5-7.1-3.3-11.1
		c0.3-3.9,1.9-7.2,4.8-10.1c2.9-2.8,6.9-4.2,12.1-4.2c7.4,0,14,3.9,19.5,11.7l47.3,67l47.5-67c3.1-4.2,6-7.2,8.9-9
		c2.9-1.8,6.4-2.8,10.6-2.8c7.4,0,12.4,2.8,14.7,8.2c2.4,5.4,1.3,11.2-3,17.3l-61,86.2v75.7
		C2980,1570.3,2973.9,1576.7,2961.7,1576.7z"/>
</g>
<g>
	<path fill="#FFFFFF" d="M1522.8,133.1c306.7,0,554.3,30.5,735.8,90.7c69.5,23,129,50.4,176.9,81.5c36.9,23.9,66.8,49.8,88.7,77
		c11.4,14.2,20.2,29.9,26.2,46.8c6,16.8,9,34.3,9,52v509.3c0,17.8-4.4,33.5-13.3,48c-8.8,14.2-22.4,27.4-40.3,39.3
		c-35.3,23.3-88.3,42-157.4,55.5c-132.2,25.8-300.6,28.6-435.9,30.8c-17.6,0.3-34.2,0.6-50.4,0.9c-1.5,0-3.1,0-4.6,0
		c-30,0-59.5-5.5-87.5-16.4c-27.7-10.8-52.8-26.4-74.6-46.3c-44.1-40.3-106.9-63.5-172.4-63.5c-65.4,0-128.2,23.1-172.4,63.4l0,0
		l0,0c-21.8,19.9-46.9,35.5-74.6,46.3c-28,10.9-57.4,16.4-87.5,16.4c-1.5,0-3.1,0-4.6,0c-16.6-0.3-33.5-0.6-51.5-0.9
		c-135.2-2.3-303.4-5.2-435.4-30.9c-69-13.5-121.9-32.1-157.1-55.5c-17.9-11.9-31.5-25.1-40.2-39.3c-8.9-14.4-13.3-30.1-13.3-47.9
		V481.1c0-17.7,3-35.2,9-52c6-16.9,14.8-32.6,26.2-46.8c22-27.2,51.8-53.1,88.8-77.1c47.9-31,107.4-58.4,176.9-81.5
		C968.5,163.6,1216.1,133.1,1522.8,133.1 M1522.8,103.1c-702.7,0-943,159.1-1024.7,260.3c-27.3,33.8-41.9,75.2-41.9,117.6v509.3
		c0,204.5,454.5,199,726.9,204.5c1.7,0,3.5,0,5.2,0c68.2,0,133.3-25.8,182.3-70.6c37.3-34.1,91.6-55.6,152.2-55.6
		c60.5,0,114.8,21.4,152.2,55.6c49,44.9,114.1,70.6,182.3,70.6c1.7,0,3.4,0,5.2,0c272.4-5.4,726.9,0,726.9-204.5V481.1
		c0-42.5-14.6-83.8-41.9-117.6C2465.8,262.2,2225.5,103.1,1522.8,103.1L1522.8,103.1z"/>
</g>
<g>
	<path fill="#FFFFFF" d="M422.5,484.8c-11.1,6.5-20.2,12.8-27.5,18.6c-21.4,17-32.7,38-32.7,59.4v257.1c0,26.1,22.8,45.4,60.2,59.8
		V484.8z"/>
	<path fill="#FFFFFF" d="M2650.6,503.5c-7.3-5.9-16.4-12.1-27.5-18.6v394.9c37.5-14.4,60.2-33.7,60.2-59.8V562.8
		C2683.3,541.4,2672,520.5,2650.6,503.5z"/>
</g>
<g>
	
		<polyline fill="none" stroke="#FFFFFF" stroke-width="30" stroke-linecap="round" stroke-linejoin="round" stroke-miterlimit="10" points="
		2329.5,712.6 2043.7,712.6 1956,795 1850.8,566.2 1699.5,886.7 1512.8,390.5 1331.4,808.5 1213.7,601.3 1101.1,771.9 998.2,709.2 
		716.1,709.2 	"/>
</g>
<path fill="#FFFFFF" d="M1522.9,69c70.1,0,135.5,1.6,196.7,4.5c-6.3-10.5-12.3-19.2-17.9-26.3c-17-21.4-38-32.7-59.4-32.7h-257.1
	c-25.8,0-45,22.3-59.3,59.1C1387.2,70.6,1452.8,69,1522.9,69z"/>
</svg>
