<?xml version="1.0" encoding="utf-8"?>
<!-- Generator: Adobe Illustrator 26.0.1, SVG Export Plug-In . SVG Version: 6.00 Build 0)  -->
<svg version="1.1" id="Layer_1" xmlns="http://www.w3.org/2000/svg" xmlns:xlink="http://www.w3.org/1999/xlink" x="0px" y="0px"
	 viewBox="0 0 3045.6 1627.3" style="enable-background:new 0 0 3045.6 1627.3;" xml:space="preserve">
<style type="text/css">
	.st0{fill:#FFFFFF;}
	.st1{fill:#00C3FF;}
</style>
<g>
	<path class="st0" d="M98,1626.7c-9.7,0-16.7-4.8-20.9-14.3L2.3,1444.6c-3.1-7.2-2.9-13.2,0.4-17.6s8.3-6.8,14.7-6.8
		c5.5,0,9.6,1.2,12.4,3.5c2.8,2.4,5.1,6,7,10.7l61.6,142.9l61.6-143.2c2.1-4.5,4.5-8.1,7.4-10.4c2.9-2.4,6.9-3.5,12.1-3.5
		c6.1,0,10.7,2.3,13.8,6.9s3.1,10.4-0.1,17.5l-74.8,167.8c-2.1,4.8-4.8,8.3-7.9,10.7C107.5,1625.5,103.3,1626.7,98,1626.7z"/>
	<path class="st0" d="M280.5,1626.7c-12.2,0-18.4-6.3-18.4-18.9v-168.7c0-12.6,6.1-18.9,18.4-18.9c12.2,0,18.3,6.3,18.3,18.9v168.7
		C298.7,1620.4,292.6,1626.7,280.5,1626.7z"/>
	<path class="st0" d="M401.3,1626.7c-12.2,0-18.4-6.3-18.4-18.9v-166.7c0-12.4,6.2-18.6,18.6-18.6h69c22.2,0,39.2,5.3,51.3,16
		c12.1,10.6,18.1,25.5,18.1,44.5c0,15.1-3.9,27.6-11.7,37.3c-7.9,9.9-19.1,16.5-33.8,19.9c9.7,3.1,17.7,10.4,24,22l21.5,39.8
		c3.2,6.1,3.9,11.7,1.9,17c-2,5.2-7,7.8-14.7,7.8c-5.2,0-9.3-1.1-12.6-3.3c-3.2-2.2-6.1-5.5-8.6-10.2L477,1560
		c-3.4-6.5-7.5-10.9-12.2-13.1s-10.6-3.3-17.9-3.3h-27.3v64.1C419.7,1620.4,413.5,1626.7,401.3,1626.7z M419.7,1516.4h44.6
		c26.7,0,40.1-10.9,40.1-32.7c0-21.6-13.4-32.3-40.1-32.3h-44.6V1516.4z"/>
	<path class="st0" d="M681,1626.7c-12.2,0-18.4-6.3-18.4-18.9v-154.7h-55.8c-10.5,0-15.7-5.2-15.7-15.5c0-10.1,5.2-15.2,15.7-15.2
		h148.5c10.5,0,15.7,5.1,15.7,15.2c0,10.3-5.2,15.5-15.7,15.5h-55.8v154.7C699.3,1620.4,693.1,1626.7,681,1626.7z"/>
	<path class="st0" d="M915.8,1627.3c-27.7,0-48.9-7.2-63.5-21.6s-21.9-35.8-21.9-64v-102.8c0-12.4,6.1-18.6,18.4-18.6
		c12.2,0,18.3,6.2,18.3,18.6v102.6c0,18.2,4.2,31.8,12.4,40.9c8.3,9.1,20.4,13.6,36.2,13.6c32.2,0,48.4-18.2,48.4-54.4V1439
		c0-12.4,6.1-18.6,18.4-18.6c12.1,0,18.1,6.2,18.1,18.6v102.8c0,28.3-7.2,49.6-21.5,64C964.9,1620.1,943.7,1627.3,915.8,1627.3z"/>
	<path class="st0" d="M1084,1626.7c-6.6,0-11.4-2.3-14.3-6.9c-2.9-4.5-2.8-10.1,0.3-16.6l75.7-167.6c2.4-5.5,5.5-9.5,9-11.9
		s7.6-3.5,12.2-3.5c4.4,0,8.3,1.2,11.9,3.5c3.5,2.4,6.5,6.3,9,11.9l75.9,167.6c3.1,6.6,3.2,12.3,0.6,16.7c-2.7,4.4-7.3,6.8-13.7,6.8
		c-5.3,0-9.5-1.3-12.4-3.9c-3-2.5-5.5-6.5-7.9-11.9l-14.3-33.2h-98.6l-14.1,33.2c-2.4,5.5-5.1,9.5-7.8,12.1
		C1092.9,1625.5,1089,1626.7,1084,1626.7z M1166.3,1462.3l-36.3,86.2h73.3l-36.3-86.2H1166.3z"/>
	<path class="st0" d="M1353.9,1624.4c-12.4,0-18.6-6.3-18.6-18.9v-165.3c0-12.4,6.1-18.6,18.3-18.6s18.4,6.2,18.4,18.6v153h83.1
		c10.7,0,16.1,5.2,16.1,15.5c0,10.5-5.3,15.7-16.1,15.7L1353.9,1624.4L1353.9,1624.4z"/>
	<path class="st0" d="M1672.5,1626.7c-12.2,0-18.3-6.3-18.3-18.9v-166.7c0-12.4,6.2-18.6,18.6-18.6h69c22.2,0,39.2,5.3,51.3,16
		c12.1,10.6,18.1,25.5,18.1,44.5c0,15.1-3.9,27.6-11.7,37.3c-7.9,9.9-19.1,16.5-33.8,19.9c9.7,3.1,17.7,10.4,24,22l21.5,39.8
		c3.2,6.1,3.9,11.7,1.9,17c-2,5.2-6.9,7.8-14.7,7.8c-5.2,0-9.3-1.1-12.6-3.3c-3.2-2.2-6.1-5.5-8.6-10.2l-28.9-53.3
		c-3.4-6.5-7.5-10.9-12.2-13.1s-10.6-3.3-17.9-3.3h-27.3v64.1C1690.8,1620.4,1684.7,1626.7,1672.5,1626.7z M1690.8,1516.4h44.6
		c26.7,0,40.1-10.9,40.1-32.7c0-21.6-13.4-32.3-40.1-32.3h-44.6V1516.4z"/>
	<path class="st0" d="M1910.2,1624.4c-13,0-19.5-6.5-19.5-19.5v-163c0-13,6.5-19.5,19.5-19.5h102.3c10,0,14.8,4.8,14.8,14.3
		c0,10-5,14.8-14.8,14.8H1926v55.6h80.2c10,0,14.8,4.9,14.8,14.6s-5,14.6-14.8,14.6H1926v58.7h86.5c10,0,14.8,4.9,14.8,14.6
		s-5,14.6-14.8,14.6L1910.2,1624.4L1910.2,1624.4z"/>
	<path class="st0" d="M2100.2,1626.7c-6.6,0-11.4-2.3-14.3-6.9c-2.9-4.5-2.8-10.1,0.3-16.6l75.7-167.6c2.4-5.5,5.5-9.5,9-11.9
		s7.6-3.5,12.2-3.5c4.4,0,8.3,1.2,11.9,3.5c3.5,2.4,6.5,6.3,9,11.9l75.9,167.6c3.1,6.6,3.2,12.3,0.6,16.7c-2.7,4.4-7.3,6.8-13.7,6.8
		c-5.3,0-9.5-1.3-12.4-3.9c-3-2.5-5.5-6.5-7.9-11.9l-14.3-33.2h-98.6l-14.1,33.2c-2.4,5.5-5.1,9.5-7.8,12.1
		C2109,1625.5,2105.2,1626.7,2100.2,1626.7z M2182.4,1462.3l-36.3,86.2h73.3l-36.3-86.2H2182.4z"/>
	<path class="st0" d="M2370.1,1624.4c-12.4,0-18.6-6.3-18.6-18.9v-165.3c0-12.4,6.1-18.6,18.3-18.6s18.4,6.2,18.4,18.6v153h83.1
		c10.7,0,16.1,5.2,16.1,15.5c0,10.5-5.3,15.7-16.1,15.7L2370.1,1624.4L2370.1,1624.4z"/>
	<path class="st0" d="M2571,1626.7c-12.2,0-18.3-6.3-18.3-18.9v-168.7c0-12.6,6.1-18.9,18.3-18.9s18.4,6.3,18.4,18.9v168.7
		C2589.2,1620.4,2583.2,1626.7,2571,1626.7z"/>
	<path class="st0" d="M2740.5,1626.7c-12.2,0-18.4-6.3-18.4-18.9v-154.7h-55.8c-10.5,0-15.7-5.2-15.7-15.5
		c0-10.1,5.2-15.2,15.7-15.2h148.5c10.5,0,15.7,5.1,15.7,15.2c0,10.3-5.2,15.5-15.7,15.5H2759v154.7
		C2758.9,1620.4,2752.8,1626.7,2740.5,1626.7z"/>
	<path class="st0" d="M2961.7,1626.7c-12.2,0-18.3-6.4-18.3-19.2v-75.9l-61.3-86.2c-2.4-3.4-3.5-7.1-3.3-11.1
		c0.3-3.9,1.9-7.2,4.8-10.1c2.9-2.8,6.9-4.2,12.1-4.2c7.4,0,14,3.9,19.5,11.7l47.3,67l47.5-67c3.1-4.2,6-7.2,8.9-9s6.4-2.8,10.6-2.8
		c7.4,0,12.4,2.8,14.7,8.2c2.4,5.4,1.3,11.2-3,17.3l-61,86.2v75.7C2980,1620.3,2973.9,1626.7,2961.7,1626.7z"/>
</g>
<g>
	<path class="st1" d="M422.5,484.8c-11.1,6.5-20.2,12.8-27.5,18.6c-21.4,17-32.7,38-32.7,59.4v257.1c0,26.1,22.8,45.4,60.2,59.8
		V484.8z"/>
	<path class="st1" d="M2650.6,503.5c-7.3-5.9-16.4-12.1-27.5-18.6v394.9c37.5-14.4,60.2-33.7,60.2-59.8V562.8
		C2683.3,541.4,2672,520.5,2650.6,503.5z"/>
</g>
<path class="st1" d="M1522.9,69c70.1,0,135.5,1.6,196.7,4.5c-6.3-10.5-12.3-19.2-17.9-26.3c-17-21.4-38-32.7-59.4-32.7h-257.1
	c-25.8,0-45,22.3-59.3,59.1C1387.2,70.6,1452.8,69,1522.9,69z"/>
<path class="st1" d="M2547.5,363.5c-81.7-101.3-322-260.4-1024.7-260.4s-943,159.1-1024.7,260.3c-27.3,33.8-41.9,75.2-41.9,117.6
	v509.3c0,204.5,454.5,199,726.9,204.5c1.7,0,3.5,0,5.2,0c68.2,0,133.3-25.8,182.3-70.6c37.3-34.1,91.6-55.6,152.2-55.6
	c60.5,0,114.8,21.4,152.2,55.6c49,44.9,114.1,70.6,182.3,70.6c1.7,0,3.4,0,5.2,0c272.4-5.4,726.9,0,726.9-204.5V481.1
	C2589.4,438.6,2574.8,397.3,2547.5,363.5z M2329.5,732.6h-277.9l-81.9,77c-4.7,4.4-11.2,6.3-17.5,5.1c-6.3-1.2-11.7-5.4-14.3-11.3
	l-87.3-189.8l-133,281.7c-3.3,7-10.4,11.5-18.1,11.5c-0.3,0-0.5,0-0.8,0c-8-0.3-15.1-5.4-17.9-12.9l-169.3-450l-161.7,372.7
	c-3,7-9.7,11.6-17.3,12c-7.6,0.4-14.7-3.5-18.5-10.1l-101.6-178.8l-94.6,143.4c-5.9,9-17.9,11.7-27.1,6.1l-98.1-59.8H716.1
	c-11,0-20-9-20-20s9-20,20-20h282.1c3.7,0,7.3,1,10.4,2.9l86.4,52.7l102-154.5c3.8-5.8,10.4-9.2,17.4-9c7,0.2,13.3,4.1,16.7,10.1
	l97.9,172.4l165.5-381.2c3.2-7.5,10.7-12.2,18.8-12c8.1,0.2,15.4,5.3,18.2,13l170.1,452l131.1-277.8c3.3-7,10.4-11.5,18.2-11.5
	c7.8,0,14.8,4.6,18.1,11.6l93.6,203.5L2030,698c3.7-3.5,8.6-5.4,13.7-5.4h285.8c11,0,20,9,20,20S2340.5,732.6,2329.5,732.6z"/>
<rect x="257.2" y="2281.4" style="fill:none;" width="1.8" height="13.1"/>
</svg>
